<mxfile host="app.diagrams.net" modified="2022-10-17T10:31:36.654Z" agent="5.0 (Windows NT 10.0; Win64; x64) AppleWebKit/537.36 (KHTML, like Gecko) Chrome/106.0.0.0 Safari/537.36 Edg/106.0.1370.42" etag="EavCw1rHeXMF5oD4O9fL" version="20.4.0" type="github">
  <diagram id="A_CZNi8wAaTR9xxjnY62" name="Page-1">
    <mxGraphModel dx="981" dy="520" grid="1" gridSize="10" guides="1" tooltips="1" connect="1" arrows="1" fold="1" page="1" pageScale="1" pageWidth="850" pageHeight="1100" math="0" shadow="0">
      <root>
        <mxCell id="0" />
        <mxCell id="1" parent="0" />
        <mxCell id="1ZIrHMKaGngpA0uqwzwr-2" style="edgeStyle=orthogonalEdgeStyle;rounded=0;orthogonalLoop=1;jettySize=auto;html=1;" parent="1" source="1ZIrHMKaGngpA0uqwzwr-1" target="1ZIrHMKaGngpA0uqwzwr-3" edge="1">
          <mxGeometry relative="1" as="geometry">
            <mxPoint x="425" y="190" as="targetPoint" />
          </mxGeometry>
        </mxCell>
        <mxCell id="1ZIrHMKaGngpA0uqwzwr-1" value="" style="ellipse;whiteSpace=wrap;html=1;aspect=fixed;fillColor=#919191;" parent="1" vertex="1">
          <mxGeometry x="395" y="80" width="60" height="60" as="geometry" />
        </mxCell>
        <mxCell id="1ZIrHMKaGngpA0uqwzwr-4" style="edgeStyle=orthogonalEdgeStyle;rounded=0;orthogonalLoop=1;jettySize=auto;html=1;" parent="1" source="1ZIrHMKaGngpA0uqwzwr-3" edge="1">
          <mxGeometry relative="1" as="geometry">
            <mxPoint x="425.5" y="270" as="targetPoint" />
          </mxGeometry>
        </mxCell>
        <mxCell id="1ZIrHMKaGngpA0uqwzwr-3" value="Read a" style="shape=parallelogram;perimeter=parallelogramPerimeter;whiteSpace=wrap;html=1;fixedSize=1;fillColor=#FFFFFF;" parent="1" vertex="1">
          <mxGeometry x="363" y="190" width="125" height="30" as="geometry" />
        </mxCell>
        <mxCell id="1ZIrHMKaGngpA0uqwzwr-6" style="edgeStyle=orthogonalEdgeStyle;rounded=0;orthogonalLoop=1;jettySize=auto;html=1;" parent="1" source="1ZIrHMKaGngpA0uqwzwr-5" edge="1">
          <mxGeometry relative="1" as="geometry">
            <mxPoint x="425" y="350" as="targetPoint" />
          </mxGeometry>
        </mxCell>
        <mxCell id="1ZIrHMKaGngpA0uqwzwr-5" value="i = 1" style="rounded=1;whiteSpace=wrap;html=1;fillColor=#FFFFFF;" parent="1" vertex="1">
          <mxGeometry x="380" y="270" width="90" height="30" as="geometry" />
        </mxCell>
        <mxCell id="1ZIrHMKaGngpA0uqwzwr-8" style="edgeStyle=orthogonalEdgeStyle;rounded=0;orthogonalLoop=1;jettySize=auto;html=1;" parent="1" source="1ZIrHMKaGngpA0uqwzwr-7" edge="1">
          <mxGeometry relative="1" as="geometry">
            <mxPoint x="425" y="440" as="targetPoint" />
          </mxGeometry>
        </mxCell>
        <mxCell id="1ZIrHMKaGngpA0uqwzwr-9" style="edgeStyle=orthogonalEdgeStyle;rounded=0;orthogonalLoop=1;jettySize=auto;html=1;" parent="1" source="1ZIrHMKaGngpA0uqwzwr-7" edge="1">
          <mxGeometry relative="1" as="geometry">
            <mxPoint x="540" y="370" as="targetPoint" />
          </mxGeometry>
        </mxCell>
        <mxCell id="1ZIrHMKaGngpA0uqwzwr-7" value="" style="rhombus;whiteSpace=wrap;html=1;fillColor=#FFFFFF;" parent="1" vertex="1">
          <mxGeometry x="383" y="350" width="84.5" height="40" as="geometry" />
        </mxCell>
        <mxCell id="1ZIrHMKaGngpA0uqwzwr-10" value="[ i &amp;gt; a ]" style="text;html=1;align=center;verticalAlign=middle;resizable=0;points=[];autosize=1;strokeColor=none;fillColor=none;" parent="1" vertex="1">
          <mxGeometry x="460" y="340" width="60" height="30" as="geometry" />
        </mxCell>
        <mxCell id="1ZIrHMKaGngpA0uqwzwr-11" value="[ i &amp;lt;= a ]" style="text;html=1;align=center;verticalAlign=middle;resizable=0;points=[];autosize=1;strokeColor=none;fillColor=none;" parent="1" vertex="1">
          <mxGeometry x="363" y="390" width="70" height="30" as="geometry" />
        </mxCell>
        <mxCell id="1ZIrHMKaGngpA0uqwzwr-13" style="edgeStyle=orthogonalEdgeStyle;rounded=0;orthogonalLoop=1;jettySize=auto;html=1;" parent="1" source="1ZIrHMKaGngpA0uqwzwr-12" edge="1">
          <mxGeometry relative="1" as="geometry">
            <mxPoint x="425.5" y="520" as="targetPoint" />
          </mxGeometry>
        </mxCell>
        <mxCell id="1ZIrHMKaGngpA0uqwzwr-12" value="result = result * i" style="rounded=1;whiteSpace=wrap;html=1;fillColor=#FFFFFF;" parent="1" vertex="1">
          <mxGeometry x="372" y="440" width="107" height="30" as="geometry" />
        </mxCell>
        <mxCell id="1ZIrHMKaGngpA0uqwzwr-14" value="" style="endArrow=classic;html=1;rounded=0;" parent="1" edge="1">
          <mxGeometry width="50" height="50" relative="1" as="geometry">
            <mxPoint x="425" y="520" as="sourcePoint" />
            <mxPoint x="280" y="520" as="targetPoint" />
          </mxGeometry>
        </mxCell>
        <mxCell id="1ZIrHMKaGngpA0uqwzwr-16" value="" style="endArrow=classic;html=1;rounded=0;entryX=0;entryY=0.5;entryDx=0;entryDy=0;" parent="1" target="1ZIrHMKaGngpA0uqwzwr-7" edge="1">
          <mxGeometry width="50" height="50" relative="1" as="geometry">
            <mxPoint x="280" y="370" as="sourcePoint" />
            <mxPoint x="510" y="390" as="targetPoint" />
          </mxGeometry>
        </mxCell>
        <mxCell id="1ZIrHMKaGngpA0uqwzwr-17" value="" style="ellipse;whiteSpace=wrap;html=1;aspect=fixed;fillColor=#919191;strokeColor=none;" parent="1" vertex="1">
          <mxGeometry x="575" y="440" width="40" height="40" as="geometry" />
        </mxCell>
        <mxCell id="1ZIrHMKaGngpA0uqwzwr-19" style="edgeStyle=orthogonalEdgeStyle;rounded=0;orthogonalLoop=1;jettySize=auto;html=1;" parent="1" source="1ZIrHMKaGngpA0uqwzwr-18" edge="1">
          <mxGeometry relative="1" as="geometry">
            <mxPoint x="595" y="440" as="targetPoint" />
          </mxGeometry>
        </mxCell>
        <mxCell id="1ZIrHMKaGngpA0uqwzwr-18" value="print result" style="rounded=1;whiteSpace=wrap;html=1;fillColor=#FFFFFF;" parent="1" vertex="1">
          <mxGeometry x="540" y="350" width="110" height="40" as="geometry" />
        </mxCell>
        <mxCell id="xOWE5IudlTphil_PsIoz-5" style="edgeStyle=orthogonalEdgeStyle;rounded=0;orthogonalLoop=1;jettySize=auto;html=1;" edge="1" parent="1" source="xOWE5IudlTphil_PsIoz-1">
          <mxGeometry relative="1" as="geometry">
            <mxPoint x="280" y="370" as="targetPoint" />
          </mxGeometry>
        </mxCell>
        <mxCell id="xOWE5IudlTphil_PsIoz-1" value="i = i + 1" style="rounded=1;whiteSpace=wrap;html=1;fillColor=#FFFFFF;" vertex="1" parent="1">
          <mxGeometry x="250" y="440" width="60" height="30" as="geometry" />
        </mxCell>
        <mxCell id="xOWE5IudlTphil_PsIoz-2" value="" style="endArrow=classic;html=1;rounded=0;" edge="1" parent="1">
          <mxGeometry width="50" height="50" relative="1" as="geometry">
            <mxPoint x="280" y="520" as="sourcePoint" />
            <mxPoint x="280" y="470" as="targetPoint" />
          </mxGeometry>
        </mxCell>
      </root>
    </mxGraphModel>
  </diagram>
</mxfile>
